<?xml version="1.0" standalone="no"?>
<!DOCTYPE svg PUBLIC "-//W3C//DTD SVG 20010904//EN"
 "http://www.w3.org/TR/2001/REC-SVG-20010904/DTD/svg10.dtd">
<svg version="1.0" xmlns="http://www.w3.org/2000/svg"
 width="2560.000000pt" height="572.000000pt" viewBox="0 0 2560.000000 572.000000"
 preserveAspectRatio="xMidYMid meet">

<g transform="translate(0.000000,572.000000) scale(0.100000,-0.100000)"
fill="#000000" stroke="none">
<path d="M3430 5714 c-1269 -23 -2118 -75 -2481 -154 -352 -76 -631 -319 -752
-656 -130 -363 -218 -1490 -188 -2406 25 -762 72 -1236 157 -1573 96 -382 376
-660 757 -754 252 -62 820 -109 1757 -143 464 -17 2346 -17 2805 0 1021 38
1541 82 1795 153 285 79 524 283 652 556 257 548 309 2890 87 3971 -45 220
-119 381 -247 530 -114 133 -333 268 -510 312 -285 71 -903 120 -1912 150
-344 10 -1608 20 -1920 14z m900 -2240 c578 -334 1050 -609 1050 -613 -1 -6
-2087 -1212 -2110 -1219 -7 -3 -10 377 -10 1217 0 811 3 1221 10 1221 6 0 483
-273 1060 -606z"/>
<path d="M20850 2955 l0 -2535 334 0 334 0 37 153 c48 195 45 187 54 187 4 0
18 -18 30 -40 92 -165 299 -302 514 -341 88 -15 251 -13 329 5 205 48 375 207
467 436 68 171 118 403 141 660 30 337 22 1341 -15 1665 -45 409 -140 652
-306 791 -98 81 -201 115 -379 121 -159 6 -255 -12 -374 -73 -143 -72 -248
-167 -342 -311 l-44 -67 0 942 0 942 -390 0 -390 0 0 -2535z m1235 516 c114
-53 170 -203 194 -516 29 -376 23 -1314 -10 -1565 -43 -330 -147 -464 -351
-447 -111 9 -217 69 -268 152 -20 33 -20 39 -18 1066 l3 1034 29 60 c39 80
154 196 216 218 63 22 156 21 205 -2z"/>
<path d="M8980 5283 c5 -16 212 -760 460 -1656 l450 -1628 0 -789 0 -790 395
0 395 0 0 793 0 792 463 1650 463 1650 -395 3 c-217 1 -396 0 -399 -2 -2 -3
-80 -348 -173 -768 -169 -765 -278 -1288 -320 -1535 -16 -92 -27 -133 -36
-133 -7 0 -13 3 -13 8 0 15 -61 361 -86 487 -28 144 -402 1900 -410 1928 -5
16 -33 17 -404 17 l-399 0 9 -27z"/>
<path d="M16040 4990 l0 -320 398 -2 397 -3 3 -2123 2 -2122 390 0 390 0 2
2122 3 2123 398 3 397 2 0 320 0 320 -1190 0 -1190 0 0 -320z"/>
<path d="M12350 4055 c-8 -2 -49 -9 -90 -15 -484 -78 -741 -402 -825 -1045
-46 -349 -46 -1229 0 -1601 75 -614 295 -906 756 -1005 90 -20 134 -23 324
-23 192 0 233 3 324 22 506 110 721 444 781 1212 18 219 8 1228 -14 1379 -50
359 -122 572 -256 749 -174 231 -431 334 -826 331 -88 -1 -166 -3 -174 -4z
m288 -575 c76 -43 125 -136 159 -305 14 -69 17 -194 20 -880 3 -541 1 -839 -6
-920 -32 -342 -109 -464 -294 -465 -178 0 -256 125 -287 465 -13 147 -13 1516
1 1665 24 266 84 403 199 455 50 22 155 15 208 -15z"/>
<path d="M24317 4044 c-121 -18 -211 -47 -314 -99 -341 -171 -498 -538 -534
-1240 -13 -255 -6 -1046 11 -1200 73 -671 274 -985 703 -1100 137 -37 327 -51
490 -37 302 27 494 106 657 271 69 70 94 104 133 181 74 149 98 258 104 476
l5 181 -343 19 c-305 17 -345 17 -350 4 -3 -8 -9 -64 -12 -125 -11 -202 -60
-356 -132 -411 -44 -34 -114 -54 -185 -54 -166 0 -248 96 -280 330 -6 41 -13
216 -17 388 l-6 312 678 0 677 0 -5 488 c-5 493 -12 605 -47 812 -63 374 -199
599 -439 719 -74 38 -215 76 -331 91 -115 14 -356 11 -463 -6z m324 -539 c154
-55 199 -243 199 -842 l0 -253 -296 0 -297 0 6 353 c3 193 11 388 17 432 27
196 79 282 190 316 43 13 136 10 181 -6z"/>
<path d="M14053 2538 c3 -1035 7 -1472 16 -1518 24 -136 54 -238 96 -326 75
-155 180 -248 339 -301 73 -24 96 -27 236 -27 170 -1 239 12 356 64 142 64
287 197 374 344 25 41 50 76 56 76 10 0 21 -58 66 -353 l12 -77 313 0 313 0 0
1785 0 1785 -400 0 -400 0 0 -1423 0 -1423 -35 -49 c-74 -104 -189 -168 -305
-168 -126 -1 -193 70 -219 233 -7 43 -11 527 -11 1448 l0 1382 -405 0 -406 0
4 -1452z"/>
<path d="M18183 2558 c3 -1073 7 -1454 17 -1518 54 -374 190 -571 450 -652 65
-20 95 -23 230 -23 181 1 237 13 375 80 126 62 234 158 323 290 22 33 46 72
53 88 7 15 18 27 25 27 13 0 17 -21 57 -280 l23 -145 317 -3 317 -2 0 1785 0
1785 -405 0 -405 0 0 -1423 0 -1424 -29 -44 c-38 -57 -63 -80 -133 -122 -65
-39 -159 -61 -215 -51 -108 19 -156 87 -183 254 -6 42 -10 549 -10 1438 l0
1372 -406 0 -405 0 4 -1432z"/>
</g>
</svg>
